
<?xml version="1.0" encoding="UTF-8"?>
<svg id="Capa_1" xmlns="http://www.w3.org/2000/svg" version="1.1" viewBox="0 0 512 512">
  <!-- Generator: Adobe Illustrator 29.0.0, SVG Export Plug-In . SVG Version: 2.1.0 Build 186)  -->
  <defs>
    <style>
      .st0 {
        fill: #fff;
      }
    </style>
  </defs>
  <path class="st0" d="M473.42,99.47c37.67,30.35,10.31,79.46-9.9,111.26-21.09,33.19-65.21,93.31-101.42,108.69-32.18,13.67-46.26-6.49-50.15-35.96-1.02-7.73-.45-18.02-2.18-25.23-.47-1.97-2.02-3.01-4.01-3.13-8.71,11.09-17.61,22.07-26.49,33.03-6.73,8.3-12.25,16.67-20.6,23.77-49.15,41.79-78.07-26.18-91.31-63.96-1.75-5.01-3.02-12.74-5.06-17.12-.34-.72-.43-1.13-1.38-1.04-1.39.13-15.16,8.38-17.61,9.83-30.82,18.32-87.68,56.01-104.54,87.3-13.97,25.92-1.65,39.14,23.17,47.65,1.43-9.05.19-19.92,2.26-28.74,2.65-11.3,11.69-8.72,19.49-4.42,13.35,7.35,36.18,21.66,48.03,30.92,8.09,6.32,12.77,14.83,2.34,21.83-18.32,8.45-36.42,21.61-54.92,29.26-4.41,1.82-9.05,3.91-13.51,1.3-5.78-3.39-4.45-10.27-5.64-15.89l1.95-27.71c-13.5-3.19-32.7-10.65-39.06-23.92-7.5-15.63.04-36.56,9.18-50.04,28.88-42.63,73.38-74.63,115.69-102.91,2.81-1.88,5.82-3.64,8.77-5.3-2.15-10.04-4.27-20.66-5.16-30.91-.57-6.53-.5-13.02-.66-19.57-.09-3.43-2.44-12.93,3.75-7.02,3.4,16.8,8.52,33.54,15.5,49.08,31.55-19.06,63.32-37.59,96.67-53.4,51.05-24.2,107.29-47.67,164.35-50.98,14.91-.87,30.86,3.95,42.47,13.31ZM372.12,267.13c19.47-21.2,44.27-54.69,57.96-80.05,6.93-12.84,16.11-30.18,8.25-44.37-9.17-16.56-45.5-9.87-60.7-6.78-45.07,9.19-91.17,27.83-132.58,47.52-22.02,10.47-43.06,22.84-64.34,34.55,2.64,10.88,5.9,21.66,9.93,32.11,4.98,12.94,11.58,30.23,23.78,37.56,28.23,16.94,39.78-13.81,52.27-32.33,12.03-17.84,31.09-54.92,57.79-37.92,19.02,12.11,16.32,42.79,22.29,61.23.86,2.64,3.09,6.75,6.44,6.36,3.88-.45,15.71-14.39,18.91-17.88Z"/>
</svg>